<svg xmlns="http://www.w3.org/2000/svg" viewBox="0 0 1440 960" width="1440" height="960">
  <rect width="1440" height="960" fill="#F4F1E9"/>
  
    <circle cx="297" cy="130" r="57" fill="#647052"/>
    <path d="M120 210V346" stroke="#647052" stroke-width="9" stroke-linecap="round"/><path d="M285 168V367" stroke="#17211D" stroke-width="9" stroke-linecap="round"/><path d="M450 212V433" stroke="#17211D" stroke-width="5" stroke-linecap="round"/><path d="M615 190V353" stroke="#647052" stroke-width="4" stroke-linecap="round"/><path d="M780 191V325" stroke="#17211D" stroke-width="6" stroke-linecap="round"/><path d="M945 246V431" stroke="#17211D" stroke-width="6" stroke-linecap="round"/><path d="M1110 156V452" stroke="#647052" stroke-width="10" stroke-linecap="round"/><path d="M1275 213V492" stroke="#17211D" stroke-width="4" stroke-linecap="round"/>
    <rect x="129" y="563" width="78" height="128" rx="30" fill="none" stroke="#17211D" stroke-width="8"/><rect x="239" y="489" width="100" height="202" rx="10" fill="none" stroke="#17211D" stroke-width="8"/><rect x="475" y="516" width="103" height="175" rx="13" fill="none" stroke="#17211D" stroke-width="8"/><rect x="632" y="460" width="81" height="231" rx="23" fill="none" stroke="#17211D" stroke-width="8"/><rect x="843" y="421" width="87" height="270" rx="28" fill="none" stroke="#17211D" stroke-width="8"/><rect x="993" y="548" width="103" height="143" rx="20" fill="none" stroke="#17211D" stroke-width="8"/><rect x="1228" y="482" width="133" height="209" rx="22" fill="none" stroke="#17211D" stroke-width="8"/>
    <path d="M72 691 C320 608 515 707 720 691 S1120 578 1368 691" fill="none" stroke="#17211D" stroke-width="11" stroke-linecap="round"/>
  
  <g transform="rotate(-1 622 429)"><path d="M622 649Q267 454 337 259Q622 114 907 259Q977 454 622 649Z" fill="#647052" stroke="#17211D" stroke-width="14"/><path d="M622 649L337 313" stroke="#17211D" stroke-width="9"/><path d="M622 649L432 295" stroke="#17211D" stroke-width="9"/><path d="M622 649L527 277" stroke="#17211D" stroke-width="9"/><path d="M622 649L622 259" stroke="#17211D" stroke-width="9"/><path d="M622 649L717 277" stroke="#17211D" stroke-width="9"/><path d="M622 649L812 295" stroke="#17211D" stroke-width="9"/><path d="M622 649L907 313" stroke="#17211D" stroke-width="9"/></g>
  <path d="M155 150l34 24" stroke="#17211D" stroke-width="7" stroke-linecap="round"/><path d="M201 150l46 24" stroke="#647052" stroke-width="7" stroke-linecap="round"/><path d="M247 150l32 -24" stroke="#17211D" stroke-width="7" stroke-linecap="round"/><path d="M155 198l32 -24" stroke="#647052" stroke-width="7" stroke-linecap="round"/><path d="M201 198l24 -24" stroke="#17211D" stroke-width="7" stroke-linecap="round"/><path d="M247 198l46 24" stroke="#647052" stroke-width="7" stroke-linecap="round"/>
  <path d="M74 884H1366" stroke="#17211D" stroke-width="12" stroke-linecap="round"/>
</svg>
