<svg xmlns="http://www.w3.org/2000/svg" viewBox="0 0 1440 960" width="1440" height="960">
  <rect width="1440" height="960" fill="#F4F1E9"/>

    <circle cx="260" cy="301" r="112" fill="#647052"/>
    <path d="M120 125V355" stroke="#647052" stroke-width="9" stroke-linecap="round"/><path d="M285 255V364" stroke="#17211D" stroke-width="9" stroke-linecap="round"/><path d="M450 99V497" stroke="#17211D" stroke-width="9" stroke-linecap="round"/><path d="M615 127V496" stroke="#647052" stroke-width="5" stroke-linecap="round"/><path d="M780 163V376" stroke="#17211D" stroke-width="10" stroke-linecap="round"/><path d="M945 152V355" stroke="#17211D" stroke-width="6" stroke-linecap="round"/><path d="M1110 254V330" stroke="#647052" stroke-width="6" stroke-linecap="round"/><path d="M1275 198V363" stroke="#17211D" stroke-width="6" stroke-linecap="round"/>
    <rect x="56" y="428" width="105" height="244" rx="26" fill="none" stroke="#17211D" stroke-width="8"/><rect x="242" y="591" width="75" height="81" rx="30" fill="none" stroke="#17211D" stroke-width="8"/><rect x="487" y="442" width="76" height="230" rx="26" fill="none" stroke="#17211D" stroke-width="8"/><rect x="611" y="598" width="60" height="74" rx="10" fill="none" stroke="#17211D" stroke-width="8"/><rect x="806" y="543" width="80" height="129" rx="27" fill="none" stroke="#17211D" stroke-width="8"/><rect x="1048" y="528" width="95" height="144" rx="19" fill="none" stroke="#17211D" stroke-width="8"/><rect x="1184" y="519" width="86" height="153" rx="12" fill="none" stroke="#17211D" stroke-width="8"/>
    <path d="M72 672 C320 639 515 724 720 672 S1120 571 1368 672" fill="none" stroke="#17211D" stroke-width="11" stroke-linecap="round"/>

  <g transform="rotate(3 623 444)"><path d="M288 219Q403 379 288 679H958Q843 379 958 219Z" fill="#647052" stroke="#17211D" stroke-width="15"/><path d="M535 679V374Q623 264 711 374V679" fill="#F4F1E9" stroke="#17211D" stroke-width="13"/><circle cx="623" cy="429" r="36" fill="#17211D"/></g>
  <path d="M155 805l22 24" stroke="#17211D" stroke-width="7" stroke-linecap="round"/><path d="M201 805l18 24" stroke="#647052" stroke-width="7" stroke-linecap="round"/><path d="M247 805l38 24" stroke="#17211D" stroke-width="7" stroke-linecap="round"/><path d="M155 853l22 24" stroke="#647052" stroke-width="7" stroke-linecap="round"/><path d="M201 853l44 -24" stroke="#17211D" stroke-width="7" stroke-linecap="round"/><path d="M247 853l46 24" stroke="#647052" stroke-width="7" stroke-linecap="round"/>
  <path d="M74 884H1366" stroke="#17211D" stroke-width="12" stroke-linecap="round"/>
</svg>
