<svg xmlns="http://www.w3.org/2000/svg" viewBox="0 0 1440 960" width="1440" height="960">
  <rect width="1440" height="960" fill="#F4F1E9"/>
  
    <circle cx="899" cy="303" r="127" fill="#385B70"/>
    <path d="M120 116V409" stroke="#385B70" stroke-width="5" stroke-linecap="round"/><path d="M285 217V371" stroke="#17211D" stroke-width="6" stroke-linecap="round"/><path d="M450 248V472" stroke="#17211D" stroke-width="5" stroke-linecap="round"/><path d="M615 119V494" stroke="#385B70" stroke-width="7" stroke-linecap="round"/><path d="M780 216V324" stroke="#17211D" stroke-width="7" stroke-linecap="round"/><path d="M945 156V428" stroke="#17211D" stroke-width="8" stroke-linecap="round"/><path d="M1110 197V446" stroke="#385B70" stroke-width="6" stroke-linecap="round"/><path d="M1275 105V449" stroke="#17211D" stroke-width="8" stroke-linecap="round"/>
    <rect x="55" y="387" width="87" height="286" rx="16" fill="none" stroke="#17211D" stroke-width="8"/><rect x="307" y="455" width="102" height="218" rx="9" fill="none" stroke="#17211D" stroke-width="8"/><rect x="462" y="454" width="79" height="219" rx="22" fill="none" stroke="#17211D" stroke-width="8"/><rect x="652" y="444" width="59" height="229" rx="25" fill="none" stroke="#17211D" stroke-width="8"/><rect x="858" y="588" width="73" height="85" rx="20" fill="none" stroke="#17211D" stroke-width="8"/><rect x="1027" y="580" width="142" height="93" rx="11" fill="none" stroke="#17211D" stroke-width="8"/><rect x="1164" y="594" width="62" height="79" rx="7" fill="none" stroke="#17211D" stroke-width="8"/>
    <path d="M72 673 C320 614 515 728 720 673 S1120 589 1368 673" fill="none" stroke="#17211D" stroke-width="11" stroke-linecap="round"/>
  
  <g transform="rotate(-11 500 554)"><path d="M230 334H770L555 574V804H445V574Z" fill="#385B70" stroke="#17211D" stroke-width="14" stroke-linejoin="round"/><ellipse cx="500" cy="334" rx="270" ry="58" fill="#F4F1E9" stroke="#17211D" stroke-width="14"/><circle cx="410" cy="472" r="26" fill="#F4F1E9"/><circle cx="582" cy="454" r="19" fill="#F4F1E9"/></g>
  <path d="M155 150l42 24" stroke="#17211D" stroke-width="7" stroke-linecap="round"/><path d="M201 150l24 -24" stroke="#385B70" stroke-width="7" stroke-linecap="round"/><path d="M247 150l24 -24" stroke="#17211D" stroke-width="7" stroke-linecap="round"/><path d="M155 198l46 24" stroke="#385B70" stroke-width="7" stroke-linecap="round"/><path d="M201 198l32 -24" stroke="#17211D" stroke-width="7" stroke-linecap="round"/><path d="M247 198l38 24" stroke="#385B70" stroke-width="7" stroke-linecap="round"/>
  <path d="M74 884H1366" stroke="#17211D" stroke-width="12" stroke-linecap="round"/>
</svg>
