<svg xmlns="http://www.w3.org/2000/svg" viewBox="0 0 1440 960" width="1440" height="960">
  <rect width="1440" height="960" fill="#F4F1E9"/>
  
    <circle cx="1100" cy="388" r="116" fill="#385B70"/>
    <path d="M120 204V392" stroke="#385B70" stroke-width="9" stroke-linecap="round"/><path d="M285 104V449" stroke="#17211D" stroke-width="5" stroke-linecap="round"/><path d="M450 202V421" stroke="#17211D" stroke-width="9" stroke-linecap="round"/><path d="M615 169V378" stroke="#385B70" stroke-width="8" stroke-linecap="round"/><path d="M780 160V338" stroke="#17211D" stroke-width="7" stroke-linecap="round"/><path d="M945 169V455" stroke="#17211D" stroke-width="9" stroke-linecap="round"/><path d="M1110 116V388" stroke="#385B70" stroke-width="6" stroke-linecap="round"/><path d="M1275 153V485" stroke="#17211D" stroke-width="5" stroke-linecap="round"/>
    <rect x="69" y="561" width="144" height="149" rx="10" fill="none" stroke="#17211D" stroke-width="8"/><rect x="239" y="450" width="137" height="260" rx="11" fill="none" stroke="#17211D" stroke-width="8"/><rect x="462" y="442" width="98" height="268" rx="17" fill="none" stroke="#17211D" stroke-width="8"/><rect x="669" y="583" width="134" height="127" rx="16" fill="none" stroke="#17211D" stroke-width="8"/><rect x="846" y="550" width="94" height="160" rx="28" fill="none" stroke="#17211D" stroke-width="8"/><rect x="1030" y="632" width="112" height="78" rx="15" fill="none" stroke="#17211D" stroke-width="8"/><rect x="1170" y="487" width="94" height="223" rx="8" fill="none" stroke="#17211D" stroke-width="8"/>
    <path d="M72 710 C320 624 515 780 720 710 S1120 681 1368 710" fill="none" stroke="#17211D" stroke-width="11" stroke-linecap="round"/>
  
  <g transform="rotate(1 802 469)"><path d="M532 249H1072L857 489V719H747V489Z" fill="#385B70" stroke="#17211D" stroke-width="14" stroke-linejoin="round"/><ellipse cx="802" cy="249" rx="270" ry="58" fill="#F4F1E9" stroke="#17211D" stroke-width="14"/><circle cx="712" cy="387" r="26" fill="#F4F1E9"/><circle cx="884" cy="369" r="19" fill="#F4F1E9"/></g>
  <path d="M1190 805l40 -24" stroke="#17211D" stroke-width="7" stroke-linecap="round"/><path d="M1236 805l22 24" stroke="#385B70" stroke-width="7" stroke-linecap="round"/><path d="M1282 805l32 -24" stroke="#17211D" stroke-width="7" stroke-linecap="round"/><path d="M1190 853l18 24" stroke="#385B70" stroke-width="7" stroke-linecap="round"/><path d="M1236 853l42 24" stroke="#17211D" stroke-width="7" stroke-linecap="round"/><path d="M1282 853l34 24" stroke="#385B70" stroke-width="7" stroke-linecap="round"/>
  <path d="M74 884H1366" stroke="#17211D" stroke-width="12" stroke-linecap="round"/>
</svg>
