<svg xmlns="http://www.w3.org/2000/svg" viewBox="0 0 1440 960" width="1440" height="960">
  <rect width="1440" height="960" fill="#F4F1E9"/>

    <circle cx="598" cy="149" r="97" fill="#A84F3D"/>
    <path d="M120 246V477" stroke="#A84F3D" stroke-width="4" stroke-linecap="round"/><path d="M285 233V465" stroke="#17211D" stroke-width="9" stroke-linecap="round"/><path d="M450 147V468" stroke="#17211D" stroke-width="7" stroke-linecap="round"/><path d="M615 174V372" stroke="#A84F3D" stroke-width="10" stroke-linecap="round"/><path d="M780 143V415" stroke="#17211D" stroke-width="10" stroke-linecap="round"/><path d="M945 232V409" stroke="#17211D" stroke-width="6" stroke-linecap="round"/><path d="M1110 198V434" stroke="#A84F3D" stroke-width="5" stroke-linecap="round"/><path d="M1275 153V365" stroke="#17211D" stroke-width="7" stroke-linecap="round"/>
    <rect x="56" y="414" width="125" height="197" rx="16" fill="none" stroke="#17211D" stroke-width="8"/><rect x="277" y="380" width="64" height="231" rx="20" fill="none" stroke="#17211D" stroke-width="8"/><rect x="418" y="483" width="135" height="128" rx="5" fill="none" stroke="#17211D" stroke-width="8"/><rect x="638" y="463" width="84" height="148" rx="5" fill="none" stroke="#17211D" stroke-width="8"/><rect x="822" y="479" width="96" height="132" rx="28" fill="none" stroke="#17211D" stroke-width="8"/><rect x="985" y="447" width="66" height="164" rx="22" fill="none" stroke="#17211D" stroke-width="8"/><rect x="1224" y="387" width="90" height="224" rx="16" fill="none" stroke="#17211D" stroke-width="8"/>
    <path d="M72 611 C320 531 515 674 720 611 S1120 549 1368 611" fill="none" stroke="#17211D" stroke-width="11" stroke-linecap="round"/>

  <g transform="rotate(5 928 544)"><ellipse cx="928" cy="544" rx="285" ry="180" fill="#F4F1E9" stroke="#17211D" stroke-width="14"/><ellipse cx="928" cy="544" rx="180" ry="95" fill="#A84F3D" stroke="#17211D" stroke-width="10"/><circle cx="928" cy="544" r="42" fill="#F4F1E9" stroke="#17211D" stroke-width="9"/><path d="M588 354V749M556 354V502M620 354V502M1263 339Q1213 504 1263 749" fill="none" stroke="#17211D" stroke-width="13" stroke-linecap="round"/></g>
  <path d="M1190 805l40 -24" stroke="#17211D" stroke-width="7" stroke-linecap="round"/><path d="M1236 805l20 -24" stroke="#A84F3D" stroke-width="7" stroke-linecap="round"/><path d="M1282 805l22 24" stroke="#17211D" stroke-width="7" stroke-linecap="round"/><path d="M1190 853l44 -24" stroke="#A84F3D" stroke-width="7" stroke-linecap="round"/><path d="M1236 853l28 -24" stroke="#17211D" stroke-width="7" stroke-linecap="round"/><path d="M1282 853l30 24" stroke="#A84F3D" stroke-width="7" stroke-linecap="round"/>
  <path d="M74 884H1366" stroke="#17211D" stroke-width="12" stroke-linecap="round"/>
</svg>
