<svg xmlns="http://www.w3.org/2000/svg" viewBox="0 0 1440 960" width="1440" height="960">
  <rect width="1440" height="960" fill="#F4F1E9"/>

    <circle cx="1121" cy="313" r="106" fill="#A84F3D"/>
    <path d="M120 133V344" stroke="#A84F3D" stroke-width="6" stroke-linecap="round"/><path d="M285 206V449" stroke="#17211D" stroke-width="9" stroke-linecap="round"/><path d="M450 116V425" stroke="#17211D" stroke-width="5" stroke-linecap="round"/><path d="M615 166V480" stroke="#A84F3D" stroke-width="4" stroke-linecap="round"/><path d="M780 198V466" stroke="#17211D" stroke-width="5" stroke-linecap="round"/><path d="M945 234V389" stroke="#17211D" stroke-width="7" stroke-linecap="round"/><path d="M1110 117V398" stroke="#A84F3D" stroke-width="8" stroke-linecap="round"/><path d="M1275 231V386" stroke="#17211D" stroke-width="5" stroke-linecap="round"/>
    <rect x="99" y="386" width="132" height="220" rx="6" fill="none" stroke="#17211D" stroke-width="8"/><rect x="297" y="441" width="113" height="165" rx="8" fill="none" stroke="#17211D" stroke-width="8"/><rect x="441" y="483" width="75" height="123" rx="13" fill="none" stroke="#17211D" stroke-width="8"/><rect x="663" y="336" width="88" height="270" rx="15" fill="none" stroke="#17211D" stroke-width="8"/><rect x="843" y="452" width="142" height="154" rx="18" fill="none" stroke="#17211D" stroke-width="8"/><rect x="970" y="319" width="92" height="287" rx="26" fill="none" stroke="#17211D" stroke-width="8"/><rect x="1221" y="475" width="69" height="131" rx="27" fill="none" stroke="#17211D" stroke-width="8"/>
    <path d="M72 606 C320 552 515 667 720 606 S1120 498 1368 606" fill="none" stroke="#17211D" stroke-width="11" stroke-linecap="round"/>

  <g transform="rotate(10 666 528)"><ellipse cx="666" cy="528" rx="285" ry="180" fill="#F4F1E9" stroke="#17211D" stroke-width="14"/><ellipse cx="666" cy="528" rx="180" ry="95" fill="#A84F3D" stroke="#17211D" stroke-width="10"/><circle cx="666" cy="528" r="42" fill="#F4F1E9" stroke="#17211D" stroke-width="9"/><path d="M326 338V733M294 338V486M358 338V486M1001 323Q951 488 1001 733" fill="none" stroke="#17211D" stroke-width="13" stroke-linecap="round"/></g>
  <path d="M155 805l22 24" stroke="#17211D" stroke-width="7" stroke-linecap="round"/><path d="M201 805l28 -24" stroke="#A84F3D" stroke-width="7" stroke-linecap="round"/><path d="M247 805l22 24" stroke="#17211D" stroke-width="7" stroke-linecap="round"/><path d="M155 853l34 24" stroke="#A84F3D" stroke-width="7" stroke-linecap="round"/><path d="M201 853l40 -24" stroke="#17211D" stroke-width="7" stroke-linecap="round"/><path d="M247 853l40 -24" stroke="#A84F3D" stroke-width="7" stroke-linecap="round"/>
  <path d="M74 884H1366" stroke="#17211D" stroke-width="12" stroke-linecap="round"/>
</svg>
