<svg xmlns="http://www.w3.org/2000/svg" viewBox="0 0 1440 960" width="1440" height="960">
  <rect width="1440" height="960" fill="#F4F1E9"/>

    <circle cx="1250" cy="351" r="101" fill="#647052"/>
    <path d="M120 157V421" stroke="#647052" stroke-width="8" stroke-linecap="round"/><path d="M285 114V361" stroke="#17211D" stroke-width="5" stroke-linecap="round"/><path d="M450 190V390" stroke="#17211D" stroke-width="7" stroke-linecap="round"/><path d="M615 158V392" stroke="#647052" stroke-width="7" stroke-linecap="round"/><path d="M780 140V362" stroke="#17211D" stroke-width="7" stroke-linecap="round"/><path d="M945 247V426" stroke="#17211D" stroke-width="6" stroke-linecap="round"/><path d="M1110 105V361" stroke="#647052" stroke-width="5" stroke-linecap="round"/><path d="M1275 108V431" stroke="#17211D" stroke-width="7" stroke-linecap="round"/>
    <rect x="96" y="636" width="120" height="87" rx="23" fill="none" stroke="#17211D" stroke-width="8"/><rect x="271" y="643" width="89" height="80" rx="23" fill="none" stroke="#17211D" stroke-width="8"/><rect x="420" y="502" width="104" height="221" rx="21" fill="none" stroke="#17211D" stroke-width="8"/><rect x="664" y="645" width="120" height="78" rx="30" fill="none" stroke="#17211D" stroke-width="8"/><rect x="845" y="488" width="125" height="235" rx="21" fill="none" stroke="#17211D" stroke-width="8"/><rect x="993" y="607" width="68" height="116" rx="15" fill="none" stroke="#17211D" stroke-width="8"/><rect x="1174" y="460" width="94" height="263" rx="5" fill="none" stroke="#17211D" stroke-width="8"/>
    <path d="M72 723 C320 647 515 745 720 723 S1120 620 1368 723" fill="none" stroke="#17211D" stroke-width="11" stroke-linecap="round"/>

  <g transform="rotate(-10 848 458)"><path d="M848 678Q493 483 563 288Q848 143 1133 288Q1203 483 848 678Z" fill="#647052" stroke="#17211D" stroke-width="14"/><path d="M848 678L563 342" stroke="#17211D" stroke-width="9"/><path d="M848 678L658 324" stroke="#17211D" stroke-width="9"/><path d="M848 678L753 306" stroke="#17211D" stroke-width="9"/><path d="M848 678L848 288" stroke="#17211D" stroke-width="9"/><path d="M848 678L943 306" stroke="#17211D" stroke-width="9"/><path d="M848 678L1038 324" stroke="#17211D" stroke-width="9"/><path d="M848 678L1133 342" stroke="#17211D" stroke-width="9"/></g>
  <path d="M155 805l46 24" stroke="#17211D" stroke-width="7" stroke-linecap="round"/><path d="M201 805l36 -24" stroke="#647052" stroke-width="7" stroke-linecap="round"/><path d="M247 805l34 24" stroke="#17211D" stroke-width="7" stroke-linecap="round"/><path d="M155 853l48 -24" stroke="#647052" stroke-width="7" stroke-linecap="round"/><path d="M201 853l40 -24" stroke="#17211D" stroke-width="7" stroke-linecap="round"/><path d="M247 853l46 24" stroke="#647052" stroke-width="7" stroke-linecap="round"/>
  <path d="M74 884H1366" stroke="#17211D" stroke-width="12" stroke-linecap="round"/>
</svg>
