<svg xmlns="http://www.w3.org/2000/svg" viewBox="0 0 1440 960" width="1440" height="960">
  <rect width="1440" height="960" fill="#F4F1E9"/>

    <circle cx="971" cy="289" r="127" fill="#385B70"/>
    <path d="M120 172V351" stroke="#385B70" stroke-width="6" stroke-linecap="round"/><path d="M285 185V355" stroke="#17211D" stroke-width="7" stroke-linecap="round"/><path d="M450 165V489" stroke="#17211D" stroke-width="5" stroke-linecap="round"/><path d="M615 92V375" stroke="#385B70" stroke-width="9" stroke-linecap="round"/><path d="M780 161V386" stroke="#17211D" stroke-width="6" stroke-linecap="round"/><path d="M945 168V325" stroke="#17211D" stroke-width="8" stroke-linecap="round"/><path d="M1110 244V488" stroke="#385B70" stroke-width="8" stroke-linecap="round"/><path d="M1275 208V379" stroke="#17211D" stroke-width="7" stroke-linecap="round"/>
    <rect x="52" y="591" width="95" height="124" rx="27" fill="none" stroke="#17211D" stroke-width="8"/><rect x="309" y="588" width="142" height="127" rx="28" fill="none" stroke="#17211D" stroke-width="8"/><rect x="438" y="582" width="127" height="133" rx="5" fill="none" stroke="#17211D" stroke-width="8"/><rect x="658" y="521" width="142" height="194" rx="4" fill="none" stroke="#17211D" stroke-width="8"/><rect x="802" y="626" width="86" height="89" rx="4" fill="none" stroke="#17211D" stroke-width="8"/><rect x="1043" y="613" width="64" height="102" rx="29" fill="none" stroke="#17211D" stroke-width="8"/><rect x="1202" y="490" width="86" height="225" rx="9" fill="none" stroke="#17211D" stroke-width="8"/>
    <path d="M72 715 C320 662 515 769 720 715 S1120 605 1368 715" fill="none" stroke="#17211D" stroke-width="11" stroke-linecap="round"/>

  <g transform="rotate(1 537 476)"><path d="M267 256H807L592 496V726H482V496Z" fill="#385B70" stroke="#17211D" stroke-width="14" stroke-linejoin="round"/><ellipse cx="537" cy="256" rx="270" ry="58" fill="#F4F1E9" stroke="#17211D" stroke-width="14"/><circle cx="447" cy="394" r="26" fill="#F4F1E9"/><circle cx="619" cy="376" r="19" fill="#F4F1E9"/></g>
  <path d="M1190 805l32 -24" stroke="#17211D" stroke-width="7" stroke-linecap="round"/><path d="M1236 805l30 24" stroke="#385B70" stroke-width="7" stroke-linecap="round"/><path d="M1282 805l40 -24" stroke="#17211D" stroke-width="7" stroke-linecap="round"/><path d="M1190 853l48 -24" stroke="#385B70" stroke-width="7" stroke-linecap="round"/><path d="M1236 853l24 -24" stroke="#17211D" stroke-width="7" stroke-linecap="round"/><path d="M1282 853l36 -24" stroke="#385B70" stroke-width="7" stroke-linecap="round"/>
  <path d="M74 884H1366" stroke="#17211D" stroke-width="12" stroke-linecap="round"/>
</svg>
