<svg xmlns="http://www.w3.org/2000/svg" viewBox="0 0 1440 960" width="1440" height="960">
  <rect width="1440" height="960" fill="#F4F1E9"/>

    <circle cx="266" cy="352" r="112" fill="#A84F3D"/>
    <path d="M120 103V455" stroke="#A84F3D" stroke-width="8" stroke-linecap="round"/><path d="M285 158V388" stroke="#17211D" stroke-width="8" stroke-linecap="round"/><path d="M450 191V355" stroke="#17211D" stroke-width="8" stroke-linecap="round"/><path d="M615 159V383" stroke="#A84F3D" stroke-width="7" stroke-linecap="round"/><path d="M780 131V382" stroke="#17211D" stroke-width="5" stroke-linecap="round"/><path d="M945 208V381" stroke="#17211D" stroke-width="6" stroke-linecap="round"/><path d="M1110 107V356" stroke="#A84F3D" stroke-width="9" stroke-linecap="round"/><path d="M1275 172V320" stroke="#17211D" stroke-width="9" stroke-linecap="round"/>
    <rect x="74" y="612" width="54" height="98" rx="12" fill="none" stroke="#17211D" stroke-width="8"/><rect x="235" y="490" width="68" height="220" rx="24" fill="none" stroke="#17211D" stroke-width="8"/><rect x="428" y="562" width="107" height="148" rx="26" fill="none" stroke="#17211D" stroke-width="8"/><rect x="605" y="601" width="144" height="109" rx="13" fill="none" stroke="#17211D" stroke-width="8"/><rect x="786" y="633" width="133" height="77" rx="12" fill="none" stroke="#17211D" stroke-width="8"/><rect x="1022" y="602" width="135" height="108" rx="4" fill="none" stroke="#17211D" stroke-width="8"/><rect x="1192" y="505" width="121" height="205" rx="24" fill="none" stroke="#17211D" stroke-width="8"/>
    <path d="M72 710 C320 660 515 748 720 710 S1120 606 1368 710" fill="none" stroke="#17211D" stroke-width="11" stroke-linecap="round"/>

  <g transform="rotate(3 844 434)"><path d="M654 354H939V549Q939 614 869 624H729Q654 609 654 539Z" fill="#F4F1E9" stroke="#17211D" stroke-width="14"/><path d="M939 414Q1089 429 1054 539Q1032 589 936 559" fill="none" stroke="#17211D" stroke-width="14"/><path d="M729 299Q764 199 824 289T914 269" fill="none" stroke="#A84F3D" stroke-width="13" stroke-linecap="round"/></g>
  <path d="M1190 805l24 -24" stroke="#17211D" stroke-width="7" stroke-linecap="round"/><path d="M1236 805l40 -24" stroke="#A84F3D" stroke-width="7" stroke-linecap="round"/><path d="M1282 805l20 -24" stroke="#17211D" stroke-width="7" stroke-linecap="round"/><path d="M1190 853l18 24" stroke="#A84F3D" stroke-width="7" stroke-linecap="round"/><path d="M1236 853l48 -24" stroke="#17211D" stroke-width="7" stroke-linecap="round"/><path d="M1282 853l22 24" stroke="#A84F3D" stroke-width="7" stroke-linecap="round"/>
  <path d="M74 884H1366" stroke="#17211D" stroke-width="12" stroke-linecap="round"/>
</svg>
